<svg xmlns="http://www.w3.org/2000/svg" viewBox="0 0 800 600">
  <!-- Background -->
  <rect width="800" height="600" fill="#f5f5f5"/>
  
  <!-- Title -->
  <text x="400" y="40" font-family="Arial" font-size="24" text-anchor="middle" font-weight="bold">OVMS MQTT Integration Setup Flow</text>
  
  <!-- Setup boxes -->
  <g>
    <!-- Step 1: MQTT Broker -->
    <rect x="50" y="100" width="200" height="150" rx="10" fill="#fff" stroke="#03a9f4" stroke-width="2"/>
    <text x="150" y="125" font-family="Arial" font-size="16" text-anchor="middle" font-weight="bold">Step 1: MQTT Broker</text>
    <rect x="70" y="140" width="160" height="25" rx="5" fill="#f0f0f0" stroke="#ccc"/>
    <text x="80" y="157" font-family="Arial" font-size="12">mqtt-broker.example.com</text>
    <rect x="70" y="175" width="160" height="25" rx="5" fill="#f0f0f0" stroke="#ccc"/>
    <text x="80" y="192" font-family="Arial" font-size="12">Port: 8883 (mqtts://)</text>
    <rect x="70" y="210" width="160" height="25" rx="5" fill="#f0f0f0" stroke="#ccc"/>
    <text x="80" y="227" font-family="Arial" font-size="12">Username / Password</text>
    
    <!-- Arrow 1-->
    <path d="M250 175 L300 175 L300 175 L350 175" stroke="#03a9f4" stroke-width="2" fill="none" marker-end="url(#arrowhead)"/>
    
    <!-- Step 2: Topic Structure -->
    <rect x="350" y="100" width="200" height="150" rx="10" fill="#fff" stroke="#03a9f4" stroke-width="2"/>
    <text x="450" y="125" font-family="Arial" font-size="16" text-anchor="middle" font-weight="bold">Step 2: Topic Structure</text>
    <rect x="370" y="140" width="160" height="25" rx="5" fill="#f0f0f0" stroke="#ccc"/>
    <text x="380" y="157" font-family="Arial" font-size="12">Prefix: ovms</text>
    <rect x="370" y="175" width="160" height="25" rx="5" fill="#f0f0f0" stroke="#ccc"/>
    <text x="380" y="192" font-family="Arial" font-size="12">Structure: Default</text>
    <rect x="370" y="210" width="160" height="25" rx="5" fill="#f0f0f0" stroke="#ccc"/>
    <text x="380" y="227" font-family="Arial" font-size="12">MQTT Username: username</text>
    
    <!-- Arrow 2 -->
    <path d="M550 175 L600 175 L600 175 L650 175" stroke="#03a9f4" stroke-width="2" fill="none" marker-end="url(#arrowhead)"/>
    
    <!-- Step 3: Vehicle Config -->
    <rect x="650" y="100" width="200" height="150" rx="10" fill="#fff" stroke="#03a9f4" stroke-width="2"/>
    <text x="750" y="125" font-family="Arial" font-size="16" text-anchor="middle" font-weight="bold">Step 3: Vehicle Config</text>
    <rect x="670" y="140" width="160" height="25" rx="5" fill="#f0f0f0" stroke="#ccc"/>
    <text x="680" y="157" font-family="Arial" font-size="12">Vehicle ID: my_ovms</text>
    <text x="680" y="192" font-family="Arial" font-size="12" fill="#666">Discovered vehicles:</text>
    <text x="680" y="212" font-family="Arial" font-size="12" fill="#03a9f4">• my_ovms</text>
    <text x="680" y="232" font-family="Arial" font-size="12" fill="#03a9f4">• other_vehicle</text>
    
    <!-- Arrow 3 (downward) -->
    <path d="M750 250 L750 290" stroke="#03a9f4" stroke-width="2" fill="none" marker-end="url(#arrowhead)"/>
    
    <!-- Integration complete box -->
    <rect x="200" y="300" width="400" height="100" rx="10" fill="#e8f5e9" stroke="#4caf50" stroke-width="2"/>
    <text x="400" y="340" font-family="Arial" font-size="18" text-anchor="middle" font-weight="bold" fill="#2e7d32">Integration Complete</text>
    <text x="400" y="370" font-family="Arial" font-size="14" text-anchor="middle">Entities are created from discovered topics</text>
    
    <!-- Arrow 4 (downward) -->
    <path d="M400 400 L400 440" stroke="#4caf50" stroke-width="2" fill="none" marker-end="url(#arrowhead)"/>
    
    <!-- Entities display -->
    <rect x="100" y="450" width="600" height="120" rx="10" fill="#fff" stroke="#4caf50" stroke-width="2"/>
    <text x="400" y="475" font-family="Arial" font-size="16" text-anchor="middle" font-weight="bold">Generated Entities</text>
    
    <!-- Entity examples -->
    <g transform="translate(130, 500)">
      <rect width="140" height="25" rx="5" fill="#e3f2fd" stroke="#2196f3"/>
      <text x="70" y="17" font-family="Arial" font-size="12" text-anchor="middle">sensor.battery_soc</text>
    </g>
    
    <g transform="translate(280, 500)">
      <rect width="140" height="25" rx="5" fill="#e8f5e9" stroke="#4caf50"/>
      <text x="70" y="17" font-family="Arial" font-size="12" text-anchor="middle">sensor.range_estimated</text>
    </g>
    
    <g transform="translate(430, 500)">
      <rect width="140" height="25" rx="5" fill="#ffebee" stroke="#f44336"/>
      <text x="70" y="17" font-family="Arial" font-size="12" text-anchor="middle">binary_sensor.charging</text>
    </g>
    
    <g transform="translate(130, 535)">
      <rect width="140" height="25" rx="5" fill="#fff3e0" stroke="#ff9800"/>
      <text x="70" y="17" font-family="Arial" font-size="12" text-anchor="middle">device_tracker.location</text>
    </g>
    
    <g transform="translate(280, 535)">
      <rect width="140" height="25" rx="5" fill="#fce4ec" stroke="#e91e63"/>
      <text x="70" y="17" font-family="Arial" font-size="12" text-anchor="middle">sensor.temperature</text>
    </g>
    
    <g transform="translate(430, 535)">
      <rect width="140" height="25" rx="5" fill="#ede7f6" stroke="#673ab7"/>
      <text x="70" y="17" font-family="Arial" font-size="12" text-anchor="middle">switch.climate_control</text>
    </g>
  </g>
  
  <!-- Arrowhead marker -->
  <defs>
    <marker id="arrowhead" markerWidth="10" markerHeight="7" refX="9" refY="3.5" orient="auto">
      <polygon points="0 0, 10 3.5, 0 7" fill="#03a9f4"/>
    </marker>
  </defs>
</svg>
